<?xml version="1.0" encoding="utf-8"?>
<!-- Generator: Adobe Illustrator 27.0.1, SVG Export Plug-In . SVG Version: 6.00 Build 0)  -->
<svg version="1.1" id="圖層_1" xmlns="http://www.w3.org/2000/svg" xmlns:xlink="http://www.w3.org/1999/xlink" x="0px" y="0px"
	 viewBox="0 0 861.2 320.13" style="enable-background:new 0 0 861.2 320.13;" xml:space="preserve">
<style type="text/css">
	.st0{fill:#FFFFFF;}
</style>
<g>
	<g>
		<path class="st0" d="M362.71,180.6h-71.88c-4.16,0-8.14,1.68-11.03,4.67l-19.66,20.27H393.4l-19.66-20.27
			C370.84,182.28,366.86,180.6,362.71,180.6z"/>
		<path class="st0" d="M796.22,180.6h-71.88c-4.16,0-8.14,1.68-11.03,4.67l-19.66,20.27h133.27l-19.66-20.27
			C804.36,182.28,800.38,180.6,796.22,180.6z"/>
		<path class="st0" d="M139.39,183.92H57.46l-24.19,24.94h136.81l-19.66-20.27C147.53,185.6,143.55,183.92,139.39,183.92z"/>
		<g>
			<rect x="225.85" y="205.54" class="st0" width="31.39" height="114.59"/>
			<rect x="396.29" y="205.54" class="st0" width="31.39" height="114.59"/>
			<path class="st0" d="M280.15,283.1c2.89,2.98,6.88,4.67,11.03,4.67h71.16c4.16,0,8.14-1.68,11.03-4.67l19.66-20.27H260.49
				L280.15,283.1z"/>
			<rect x="659.37" y="205.54" class="st0" width="31.39" height="114.59"/>
			<rect x="829.8" y="205.54" class="st0" width="31.39" height="114.59"/>
			<path class="st0" d="M713.67,283.1c2.89,2.98,6.88,4.67,11.03,4.67h71.16c4.16,0,8.14-1.68,11.03-4.67l19.66-20.27H694.01
				L713.67,283.1z"/>
			<rect y="196.39" class="st0" width="31.39" height="123.74"/>
			<path class="st0" d="M170.08,208.86v82.45l-3.88,3.88H33.27l24.19,24.94h81.92c4.16,0,8.14-1.68,11.03-4.67l19.66-20.27h0l0,0v0
				l22.98-22.28c2.98-2.89,4.67-6.88,4.67-11.03v-19.7c0-4.16-1.68-8.14-4.67-11.03L170.08,208.86z"/>
			<path class="st0" d="M557.23,185.12l-13.71,23.74l-13.71-23.74c-1.61-2.8-4.6-4.52-7.83-4.52h-66.19v28.26h72.02v111.27h31.39
				V208.86h72.02V180.6h-66.19C561.83,180.6,558.84,182.32,557.23,185.12z"/>
		</g>
	</g>
	<g>
		<rect x="213.22" y="12.47" class="st0" width="31.39" height="123.74"/>
		<rect x="379.56" y="8.55" class="st0" width="31.39" height="127.67"/>
		<rect x="446.14" y="22.67" class="st0" width="31.39" height="99.42"/>
		<rect x="616.58" y="22.67" class="st0" width="31.39" height="99.42"/>
		<path class="st0" d="M511.47,136.22h71.16c4.16,0,8.14-1.68,11.03-4.67l19.66-20.27H480.78l19.66,20.27
			C503.34,134.53,507.32,136.22,511.47,136.22z"/>
		<path class="st0" d="M593.67,4.67C590.77,1.68,586.79,0,582.64,0h-71.16c-4.16,0-8.14,1.68-11.03,4.67l-19.66,20.27h132.55
			L593.67,4.67z"/>
		<path class="st0" d="M257.52,15.67l70.8,117.8l1.65,2.75h44.66l-5.13-0.78c-2.33-0.36-4.38-1.73-5.59-3.75L293.93,15.22
			l-1.65-2.75h-42.6l4.04,0.64C255.3,13.35,256.69,14.29,257.52,15.67z"/>
	</g>
</g>
</svg>
