<svg width="18" height="18" viewBox="0 0 18 18" fill="none" xmlns="http://www.w3.org/2000/svg">
<path d="M0.649078 17.9999C0.159622 17.8449 -0.00126603 17.4992 7.49105e-06 17.0023C0.00892213 12.9105 0.00510157 8.81827 0.00510157 4.72649C0.00510157 4.09238 0.306077 3.78955 0.936469 3.78955C3.48945 3.78955 6.04201 3.78955 8.59499 3.78955C9.0369 3.78955 9.33363 3.99809 9.44061 4.37737C9.56456 4.81696 9.26826 5.28288 8.81786 5.35126C8.7181 5.36655 8.61537 5.37079 8.51434 5.37079C6.28355 5.37207 4.05277 5.37164 1.82157 5.37164C1.7494 5.37164 1.67766 5.37164 1.59488 5.37164V16.4098H12.624C12.624 16.3401 12.624 16.2696 12.624 16.1991C12.624 13.9438 12.624 11.689 12.624 9.4337C12.624 8.9992 12.801 8.70615 13.1351 8.58C13.6118 8.39992 14.1212 8.7053 14.1947 9.21794C14.2065 9.30118 14.2048 9.38698 14.2048 9.4715C14.2053 11.9812 14.1993 14.4904 14.2104 17.0001C14.2125 17.4958 14.0508 17.8428 13.563 17.9999H0.649078Z" fill="white"/>
<path d="M17.9992 7.47044C17.9376 7.5875 17.8908 7.71548 17.8117 7.81856C17.6102 8.08194 17.2684 8.18066 16.9511 8.08587C16.6429 7.99371 16.4226 7.72858 16.3877 7.40186C16.3776 7.3097 16.3745 7.21623 16.3745 7.12363C16.3737 5.75779 16.3741 4.39152 16.3741 3.02568V2.78632C16.2959 2.86058 16.2478 2.90426 16.2019 2.95012C13.5042 5.64598 10.8055 8.34139 8.10998 11.0394C7.87395 11.2753 7.61563 11.4238 7.27033 11.3487C6.6855 11.2216 6.43461 10.5284 6.80657 10.0606C6.86427 9.98809 6.93071 9.92213 6.99627 9.85661C9.67696 7.17648 12.3577 4.49635 15.0397 1.81753C15.0882 1.76905 15.1511 1.73585 15.2075 1.69566C15.197 1.67383 15.1865 1.65155 15.176 1.62971C15.1109 1.62971 15.0458 1.62971 14.9807 1.62971C13.5968 1.62971 12.2125 1.63233 10.8287 1.62622C10.6696 1.62534 10.4991 1.60525 10.3536 1.54628C10.0105 1.40695 9.83257 1.04485 9.89507 0.677075C9.9567 0.315851 10.2526 0.0432955 10.6228 0.0105364C10.6923 0.00442132 10.7623 0.00573169 10.8322 0.00573169C12.8791 0.00573169 14.926 0.0131571 16.9729 5.34442e-05C17.4839 -0.00344086 17.8406 0.163849 17.9997 0.668339V7.47044H17.9992Z" fill="white"/>
</svg>
